<svg width="48" height="48" viewBox="0 0 48 48" fill="none" xmlns="http://www.w3.org/2000/svg">
<g clip-path="url(#clip0_773_239)">
<path d="M47.9998 24L35.8598 24.22C34.5498 24.24 34.3398 26.12 35.6098 26.43L47.3998 29.33L35.4798 26.84C34.1898 26.57 33.5698 28.35 34.7398 28.94L45.6098 34.42L34.5798 29.33C33.3898 28.78 32.3798 30.38 33.3898 31.22L42.7498 38.97L33.1398 31.57C32.0998 30.77 30.7598 32.1 31.5598 33.15L38.9598 42.76L31.2098 33.4C30.3698 32.39 28.7698 33.4 29.3198 34.59L34.4098 45.62L28.9298 34.75C28.3398 33.58 26.5598 34.2 26.8298 35.49L29.3198 47.41L26.4198 35.62C26.1098 34.34 24.2298 34.55 24.2098 35.87L23.9898 48L23.7698 35.86C23.7498 34.55 21.8698 34.34 21.5598 35.61L18.6598 47.4L21.1498 35.48C21.4198 34.19 19.6398 33.57 19.0498 34.74L13.5698 45.61L18.6598 34.58C19.2098 33.39 17.6098 32.38 16.7698 33.39L9.01977 42.75L16.4198 33.14C17.2198 32.1 15.8898 30.76 14.8398 31.56L5.22977 38.96L14.5898 31.21C15.5998 30.37 14.5898 28.77 13.3998 29.32L2.36977 34.41L13.2398 28.93C14.4098 28.34 13.7898 26.56 12.4998 26.83L0.599766 29.33L12.3898 26.43C13.6698 26.12 13.4598 24.24 12.1398 24.22L0.00976562 24L12.1498 23.78C13.4598 23.76 13.6698 21.88 12.3998 21.57L0.599766 18.67L12.5198 21.16C13.8098 21.43 14.4298 19.65 13.2598 19.06L2.37977 13.58L13.4098 18.67C14.5998 19.22 15.6098 17.62 14.5998 16.78L5.23977 9.03001L14.8498 16.43C15.8898 17.23 17.2298 15.9 16.4298 14.85L9.02977 5.24001L16.7798 14.6C17.6198 15.61 19.2198 14.6 18.6698 13.41L13.5798 2.38001L19.0598 13.25C19.6498 14.42 21.4298 13.8 21.1598 12.51L18.6698 0.60001L21.5698 12.39C21.8798 13.67 23.7598 13.46 23.7798 12.14L23.9998 0.0100098L24.2198 12.15C24.2398 13.46 26.1198 13.67 26.4298 12.4L29.3298 0.60001L26.8398 12.52C26.5698 13.81 28.3498 14.43 28.9398 13.26L34.4198 2.39001L29.3298 13.42C28.7798 14.61 30.3798 15.62 31.2198 14.61L38.9698 5.25001L31.5698 14.86C30.7698 15.9 32.0998 17.24 33.1498 16.44L42.7598 9.04001L33.3998 16.79C32.3898 17.63 33.3998 19.23 34.5898 18.68L45.6198 13.59L34.7498 19.07C33.5798 19.66 34.1998 21.44 35.4898 21.17L47.4098 18.68L35.6198 21.58C34.3398 21.89 34.5498 23.77 35.8698 23.79L47.9998 24.01V24Z" fill="url(#paint0_radial_773_239)"/>
</g>
<defs>
<radialGradient id="paint0_radial_773_239" cx="0" cy="0" r="1" gradientUnits="userSpaceOnUse" gradientTransform="translate(25.8084 24.1096) scale(24.2676)">
<stop offset="0.13" stop-color="#FDFC57"/>
<stop offset="0.63" stop-color="#D4E35B"/>
<stop offset="1" stop-color="#E9F059"/>
</radialGradient>
<clipPath id="clip0_773_239">
<rect width="48" height="48" fill="white"/>
</clipPath>
</defs>
</svg>
