<svg width="23" height="39" viewBox="0 0 23 39" fill="none" xmlns="http://www.w3.org/2000/svg">
<path d="M6.11863 13.6418C6.11863 12.16 4.91179 10.9587 3.42308 10.9587C1.93437 10.9587 0.727539 12.16 0.727539 13.6418V26.0929C0.727539 27.5747 1.93437 28.776 3.42308 28.776C4.91179 28.776 6.11863 27.5747 6.11863 26.0929V13.6418Z" fill="#721916" stroke="#231F20" stroke-miterlimit="10"/>
<path d="M14.0464 8.66667C14.0464 7.18488 12.8395 5.98364 11.3508 5.98364C9.86211 5.98364 8.65527 7.18488 8.65527 8.66667V31.0747C8.65527 32.5565 9.86211 33.7577 11.3508 33.7577C12.8395 33.7577 14.0464 32.5565 14.0464 31.0747V8.66667Z" fill="#721916" stroke="#231F20" stroke-miterlimit="10"/>
<path d="M22.1831 4.06243C22.1831 2.58063 20.9762 1.37939 19.4875 1.37939C17.9988 1.37939 16.792 2.58063 16.792 4.06243V35.6723C16.792 37.1541 17.9988 38.3554 19.4875 38.3554C20.9762 38.3554 22.1831 37.1541 22.1831 35.6723V4.06243Z" fill="#721916" stroke="#231F20" stroke-miterlimit="10"/>
</svg>
